<?xml version="1.0" standalone="no"?>
<!DOCTYPE svg PUBLIC "-//W3C//DTD SVG 20010904//EN"
 "http://www.w3.org/TR/2001/REC-SVG-20010904/DTD/svg10.dtd">
<svg version="1.0" xmlns="http://www.w3.org/2000/svg"
 width="50.000000pt" height="50.000000pt" viewBox="0 0 50.000000 50.000000"
 preserveAspectRatio="xMidYMid meet">
<metadata>
Created by potrace 1.14, written by Peter Selinger 2001-2017
</metadata>
<g transform="translate(0.000000,50.000000) scale(0.100000,-0.100000)"
fill="#000000" stroke="none">
<path d="M0 250 l0 -250 250 0 250 0 0 250 0 250 -250 0 -250 0 0 -250z m378
132 c9 9 12 8 12 -4 0 -12 6 -15 22 -10 17 4 20 2 15 -12 -6 -14 -3 -16 13
-11 22 7 26 -5 8 -23 -9 -9 -8 -12 6 -12 12 0 16 -5 13 -15 -4 -8 -1 -17 5
-21 7 -4 6 -9 -2 -14 -10 -6 -9 -15 4 -40 19 -39 21 -91 4 -108 -17 -17 -429
-17 -446 0 -7 7 -12 28 -12 48 0 43 22 67 68 76 18 4 32 13 32 21 0 28 47 63
85 63 24 0 35 5 35 15 0 9 6 12 15 9 10 -4 15 0 15 11 0 11 5 15 15 11 9 -3
15 0 15 10 0 11 6 13 20 9 13 -4 20 -2 20 7 1 9 5 8 14 -4 10 -13 15 -15 24
-6z"/>
</g>
</svg>
